<svg height="496pt" viewBox="-88 0 496 496" width="496pt" xmlns="http://www.w3.org/2000/svg"><path d="m40 208 9.121094 80 10.957031 96 11.921875 104h176l11.921875-104 10.957031-96 9.121094-80zm176 128c.027344 19.675781-10.308594 37.914062-27.199219 48-17.71875 10.667969-39.882812 10.667969-57.601562 0-16.871094-10.105469-27.199219-28.332031-27.199219-48s10.328125-37.894531 27.199219-48c17.71875-10.667969 39.882812-10.667969 57.601562 0 16.890625 10.085938 27.226563 28.324219 27.199219 48zm0 0" fill="#e0e0e2"/><path d="m270.878906 288-10.957031 96h-199.84375l-10.957031-96zm0 0" fill="#d80027"/><path d="m40 160h-32v48h304v-48zm0 0" fill="#acabb1"/><path d="m248 88h-176l-32 72h240zm0 0" fill="#e0e0e2"/><g fill="#ffbcab"><path d="m176 0h-26.664062l-5.03125 17.023438c-.777344 3.773437-.078126 7.703124 1.953124 10.976562l6.558594 10.648438c2.636719 3.292968 3.339844 7.734374 1.847656 11.679687l-5.328124 13.671875 21.496093-17.832031c2.613281-2.511719 4.089844-5.976563 4.089844-9.601563 0-3.621094-1.476563-7.089844-4.089844-9.597656-2.554687-2.464844-3.351562-6.234375-2.007812-9.519531zm0 0"/><path d="m240 0h-26.664062l-5.03125 17.023438c-.777344 3.773437-.078126 7.703124 1.953124 10.976562l6.558594 10.648438c2.636719 3.292968 3.339844 7.734374 1.847656 11.679687l-5.328124 13.671875 21.496093-17.832031c2.613281-2.511719 4.089844-5.976563 4.089844-9.601563 0-3.621094-1.476563-7.089844-4.089844-9.597656-2.554687-2.464844-3.351562-6.234375-2.007812-9.519531zm0 0"/><path d="m112 0h-26.664062l-5.03125 17.023438c-.777344 3.773437-.078126 7.703124 1.953124 10.976562l6.558594 10.648438c2.636719 3.292968 3.339844 7.734374 1.847656 11.679687l-5.328124 13.671875 21.496093-17.832031c2.613281-2.511719 4.089844-5.976563 4.089844-9.601563 0-3.621094-1.476563-7.089844-4.089844-9.597656-2.554687-2.464844-3.351562-6.234375-2.007812-9.519531zm0 0"/></g><path d="m216 336c0 30.929688-25.070312 56-56 56s-56-25.070312-56-56 25.070312-56 56-56 56 25.070312 56 56zm0 0" fill="#603913"/><path d="m230.238281 432.0625c-2.109375-.242188-4.226562.363281-5.890625 1.683594-1.660156 1.320312-2.730468 3.25-2.972656 5.359375l-1.925781 16.894531h-35.449219c-4.417969 0-8 3.582031-8 8s3.582031 8 8 8h42.585938c4.066406 0 7.488281-3.050781 7.949218-7.097656l2.746094-24c.492188-4.382813-2.660156-8.335938-7.042969-8.839844zm0 0"/><path d="m312 152h-26.800781l-29.886719-67.246094c-1.285156-2.890625-4.148438-4.753906-7.3125-4.753906h-176c-3.164062 0-6.027344 1.863281-7.3125 4.753906l-29.886719 67.246094h-26.800781c-4.417969 0-8 3.582031-8 8v48c0 4.417969 3.582031 8 8 8h24.863281l31.199219 272.902344c.460938 4.039062 3.875 7.089844 7.9375 7.097656h176c4.070312 0 7.492188-3.050781 7.953125-7.097656l31.183594-272.902344h24.863281c4.417969 0 8-3.582031 8-8v-48c0-4.417969-3.582031-8-8-8zm-234.800781-56h165.601562l24.886719 56h-215.375zm175.554687 280h-42.875c18.828125-23.34375 18.828125-56.65625 0-80h52zm-44.753906-40c0 26.507812-21.492188 48-48 48s-48-21.492188-48-48 21.492188-48 48-48c26.5.027344 47.972656 21.5 48 48zm-97.878906 40h-42.875l-9.140625-80h52c-18.828125 23.34375-18.828125 56.65625 0 80zm130.742187 104h-161.726562l-10.058594-88h60c19.230469 10.667969 42.597656 10.667969 61.824219 0h60zm22.855469-200h-72.796875c-19.230469-10.667969-42.597656-10.667969-61.824219 0h-72.800781l-7.3125-64h222.046875zm40.28125-80h-288v-32h288zm0 0"/><path d="m250.398438 132.753906-10.664063-24c-1.285156-2.898437-4.164063-4.765625-7.335937-4.753906h-48.398438c-4.417969 0-8 3.582031-8 8s3.582031 8 8 8h43.199219l8.5625 19.246094c1.109375 2.6875 3.589843 4.5625 6.480469 4.894531 2.890624.328125 5.730468-.933594 7.421874-3.300781 1.6875-2.363282 1.960938-5.460938.710938-8.085938zm0 0"/><path d="m152.800781 38.609375c2.636719 3.292969 3.339844 7.730469 1.847657 11.679687l-5.3125 13.710938 21.496093-17.832031c2.613281-2.511719 4.089844-5.976563 4.089844-9.601563 0-3.621094-1.476563-7.089844-4.089844-9.597656-2.554687-2.464844-3.351562-6.234375-2.007812-9.519531l7.175781-17.449219h-26.664062l-5.03125 17.023438c-.777344 3.773437-.078126 7.703124 1.953124 10.976562zm0 0"/><path d="m216.800781 38.609375c2.636719 3.292969 3.339844 7.730469 1.847657 11.679687l-5.3125 13.710938 21.496093-17.832031c2.613281-2.511719 4.089844-5.976563 4.089844-9.601563 0-3.621094-1.476563-7.089844-4.089844-9.597656-2.554687-2.464844-3.351562-6.234375-2.007812-9.519531l7.175781-17.449219h-26.664062l-5.03125 17.023438c-.777344 3.773437-.078126 7.703124 1.953124 10.976562zm0 0"/><path d="m88.800781 38.609375c2.636719 3.292969 3.339844 7.730469 1.847657 11.679687l-5.3125 13.710938 21.496093-17.832031c2.613281-2.511719 4.089844-5.976563 4.089844-9.601563 0-3.621094-1.476563-7.089844-4.089844-9.597656-2.554687-2.464844-3.351562-6.234375-2.007812-9.519531l7.175781-17.449219h-26.664062l-5.03125 17.023438c-.777344 3.773437-.078126 7.703124 1.953124 10.976562zm0 0"/></svg>